<?xml version="1.0" encoding="UTF-8"?>
<svg width="256px" height="240px" viewBox="0 0 256 240" version="1.1" xmlns="http://www.w3.org/2000/svg" preserveAspectRatio="xMidYMid">
    <title>MetaMask</title>
    <defs>
        <polygon id="path-1" points="0 0 0 98.567 90.231 98.567 90.231 0"></polygon>
        <polygon id="path-3" points="0 0 98.986 0 98.986 98.567 0 98.567"></polygon>
    </defs>
    <g>
        <polygon fill="#E2761B" points="217.223 18.139 143.234 75.289 161.315 35.256"></polygon>
        <g>
            <polygon fill="#E4761B" points="38.697 18.139 112.167 75.909 94.607 35.256"></polygon>
            <polygon fill="#E4761B" points="186.504 171.145 163.045 208.511 211.387 222.945 225.331 171.975"></polygon>
            <polygon fill="#E4761B" points="30.748 171.975 44.612 222.945 92.954 208.511 69.575 171.145"></polygon>
            <polygon fill="#E4761B" points="89.582 106.663 73.781 128.482 121.603 130.881 119.523 79.374"></polygon>
            <polygon fill="#E4761B" points="166.339 106.663 136.079 78.754 134.418 130.881 182.158 128.482"></polygon>
            <polygon fill="#E4761B" points="92.954 208.511 118.083 193.138 96.265 172.155"></polygon>
            <polygon fill="#E4761B" points="137.837 193.138 163.045 208.511 159.656 172.155"></polygon>
        </g>
        <polygon fill="#D7C1B3" points="163.045 208.511 137.837 193.138 140.296 213.502 140.056 222.326"></polygon>
        <polygon fill="#D7C1B3" points="92.954 208.511 115.944 222.326 115.784 213.502 118.083 193.138"></polygon>
        <polygon fill="#233447" points="116.604 158.341 95.565 150.756 110.148 142.451"></polygon>
        <polygon fill="#233447" points="139.316 158.341 145.773 142.451 160.435 150.756"></polygon>
        <polygon fill="#CD6116" points="92.954 208.511 96.424 171.145 69.575 171.975"></polygon>
        <polygon fill="#CD6116" points="159.576 171.145 163.045 208.511 186.504 171.975"></polygon>
        <polygon fill="#CD6116" points="182.158 128.482 134.418 130.881 139.316 158.341 145.773 142.451 160.435 150.756"></polygon>
        <polygon fill="#CD6116" points="95.565 150.756 110.148 142.451 116.604 158.341 121.603 130.881 73.781 128.482"></polygon>
        <polygon fill="#E4751F" points="73.781 128.482 96.265 172.155 95.565 150.756"></polygon>
        <polygon fill="#E4751F" points="160.435 150.756 159.656 172.155 182.158 128.482"></polygon>
        <polygon fill="#E4751F" points="121.603 130.881 116.604 158.341 122.941 190.9 124.681 149.227"></polygon>
        <polygon fill="#E4751F" points="134.418 130.881 131.419 149.067 132.999 190.9 139.316 158.341"></polygon>
        <polygon fill="#F6851B" points="139.316 158.341 132.999 190.9 137.837 193.138 159.656 172.155 160.435 150.756"></polygon>
        <polygon fill="#F6851B" points="95.565 150.756 96.265 172.155 118.083 193.138 122.941 190.9 116.604 158.341"></polygon>
        <polygon fill="#C0AD9E" points="140.056 222.326 140.296 213.502 138.077 211.602 117.843 211.602 115.784 213.502 115.944 222.326 92.954 208.511 105.199 218.511 117.683 227.234 138.237 227.234 150.801 218.511 163.045 208.511"></polygon>
        <polygon fill="#161616" points="137.837 193.138 132.999 190.9 122.941 190.9 118.083 193.138 115.784 213.502 117.843 211.602 138.077 211.602 140.296 213.502"></polygon>
        <polygon fill="#763D16" points="232.637 83.585 240.563 45.699 228.799 10.376 137.837 76.428 170.096 104.048 217.223 117.931 227.343 105.927 223.154 102.857 229.993 96.716 224.823 92.586 231.663 87.485"></polygon>
        <polygon fill="#763D16" points="15.437 45.699 23.363 83.585 19.177 87.485 26.017 92.586 20.847 96.716 27.686 102.857 23.497 105.927 33.538 117.931 80.664 104.048 112.924 76.428 21.962 10.376"></polygon>
        <polygon fill="#F6851B" points="217.223 117.931 170.096 104.048 182.158 128.482 159.656 172.155 186.504 171.975 225.331 171.975"></polygon>
        <polygon fill="#F6851B" points="80.664 104.048 33.538 117.931 30.748 171.975 69.575 171.975 96.265 172.155 73.781 128.482"></polygon>
        <polygon fill="#F6851B" points="134.418 130.881 137.837 76.428 161.315 35.256 94.607 35.256 118.083 76.428 121.603 130.881 122.941 149.227 122.961 190.9 132.999 190.9 133.039 149.227"></polygon>
    </g>
</svg>